<svg id="Layer_1" data-name="Layer 1" xmlns="http://www.w3.org/2000/svg" viewBox="0 0 500 500"><defs><style>.cls-1{fill:#eff6f9;}.cls-2{fill:#ae8162;}.cls-3{fill:#9b6b4b;}.cls-4{fill:#be1e2d;}.cls-5{fill:#f7941d;}.cls-6{fill:#9b6c4c;}.cls-7{fill:#5b4638;}.cls-8{fill:#272223;}.cls-9{fill:#dc9b80;}</style></defs><title>Tawk_Avatar-Male</title><path class="cls-1" d="M250,476.94A177,177,0,1,1,427,300a177,177,0,0,1-177,177"/><path class="cls-2" d="M294.86,354.79v-32l-44.86,32-44.86-32v32c0,13.86-14.11,13.86-14.11,13.86l59,58.72,59-58.72S294.86,368.65,294.86,354.79Z"/><path class="cls-3" d="M294.86,327.62l-44.86,32-44.86-32v32c0,.45,0,.84-.08,1.27,24.59,11,44.94,12,44.94,12s20.35-.94,44.94-12c0-.43-.08-.82-.08-1.27Z"/><path class="cls-4" d="M359.12,439.26c-9.48-19.23-7.13-41.51-5.36-51.45L316,371.43h-7.14L289.84,393a53.21,53.21,0,0,1-79.68,0l-19-21.52H184L146.15,387.3c1.78,9.67,4.38,32.39-5.27,52a176.86,176.86,0,0,0,218.24,0Z"/><path class="cls-5" d="M305.44,364.36l-19,17.87a53.2,53.2,0,0,1-72.92,0l-19-17.87L184,371.43,205.38,393a62.86,62.86,0,0,0,89.24,0L316,371.43Z"/><path class="cls-2" d="M146.15,387.3l-39.43,16.54a178.14,178.14,0,0,0,34.16,35.43C150.53,419.69,147.93,397,146.15,387.3Z"/><path class="cls-2" d="M392.66,404.69l-38.9-16.88c-1.77,9.94-4.12,32.22,5.36,51.45A177.78,177.78,0,0,0,392.66,404.69Z"/><ellipse class="cls-6" cx="136.59" cy="211.91" rx="30.72" ry="35.62"/><ellipse class="cls-6" cx="363.41" cy="211.91" rx="30.72" ry="35.62"/><path class="cls-2" d="M173.27,101.44a36.68,36.68,0,0,0-36.68,36.68V252.48c0,62.64,71.56,110.66,111.64,110.49,38.92-.16,115.18-47.85,115.18-110.49V138.12a36.68,36.68,0,0,0-36.68-36.68Z"/><path class="cls-7" d="M340.28,277.86c-15.73,6.55-41.18-.76-61.34-1.76s-29.25-.51-29.25-.51-9.09-.5-29.25.51-45.61,8.31-61.34,1.76-22.82-20.67-22.82-20.67-.17,30.8,16.14,55.07c38.54,57.33,97.27,55.07,97.27,55.07s58.73,2.26,97.27-55.07c16.31-24.27,16.14-55.07,16.14-55.07S356,271.31,340.28,277.86Z"/><path class="cls-8" d="M216.79,215.85a4,4,0,0,1-4-3.35c-.7-4-5.16-11.61-17.07-11.61-15.06,0-18.13,10.36-18.26,10.8a4,4,0,0,1-7.8-2.05c1.5-5.81,8.87-16.81,26.06-16.81,15,0,23.49,9.49,25,18.3a4,4,0,0,1-3.28,4.66A4.11,4.11,0,0,1,216.79,215.85Z"/><path class="cls-8" d="M279.42,215.85a4,4,0,0,1-4-4.72c1.52-8.81,10-18.3,25-18.3,17.19,0,24.57,11,26.06,16.81a4,4,0,0,1-7.8,2c-.15-.52-3.26-10.78-18.26-10.79-11.91,0-16.37,7.6-17.06,11.61A4,4,0,0,1,279.42,215.85Z"/><path class="cls-8" d="M218.75,174.21a3.06,3.06,0,0,1-1-.06c-.3-.07-30-7.16-47.4,3.52-2,1.22-4.45-.25-5.5-3.28s-.28-6.49,1.71-7.71c19.42-12,50.42-4.53,51.73-4.21,2.25.55,3.94,3.61,3.79,6.83C221.91,172,220.52,174,218.75,174.21Z"/><path class="cls-8" d="M276.22,174.21a3.06,3.06,0,0,0,1-.06c.3-.07,30-7.16,47.4,3.52,2,1.22,4.45-.25,5.5-3.28s.28-6.49-1.71-7.71c-19.41-12-50.42-4.53-51.73-4.21-2.25.55-3.94,3.61-3.79,6.83C273.06,172,274.45,174,276.22,174.21Z"/><path class="cls-3" d="M278.73,245.47c0-3.14-4.39-6-9.24-8.11-6.07-2.64-11.14-7-15.49-12-3.14-3.6-6.15-3.16-9.06.56a40.58,40.58,0,0,1-15.18,11.62c-4.52,2.09-8.49,4.87-8.49,7.91a11.79,11.79,0,0,0,11.16,11.77,19.26,19.26,0,0,0,35.14,0A11.79,11.79,0,0,0,278.73,245.47Z"/><path class="cls-9" d="M250.47,300.93a57.56,57.56,0,0,1-31.18-9.47,4,4,0,0,1,4.78-6.49c1.07.78,24.88,17.69,52-.12a4,4,0,1,1,4.42,6.74A54,54,0,0,1,250.47,300.93Z"/><rect class="cls-3" x="235.67" y="196.29" width="28.66" height="52.29" rx="11.31" ry="11.31"/><path class="cls-8" d="M392.66,146.91a14.06,14.06,0,0,0-1.4-6.08c1-3,.78-6.32-1.61-10.41-.16-.26-.48-.83-.95-1.64a14.22,14.22,0,0,0,3.12-8.81c0-6.28-4.19-11.67-10.15-14a14.14,14.14,0,0,0,2.8-8.41c0-7.5-6-13.71-13.8-14.92a13.92,13.92,0,0,0,1.54-6.33c0-8.37-7.43-15.15-16.59-15.15a17.93,17.93,0,0,0-3.7.39c-.62-7.85-7.78-14-16.53-14a18.18,18.18,0,0,0-5.21.77c0-.26,0-.51,0-.77,0-8.37-7.43-15.15-16.59-15.15a18,18,0,0,0-6.14,1.08,17.33,17.33,0,0,0-29.69-1,16.65,16.65,0,0,0-15.35-9.42,17.3,17.3,0,0,0-12.16,4.86,17.28,17.28,0,0,0-12.15-4.86,17.5,17.5,0,0,0-10.29,3.28,17.17,17.17,0,0,0-7.43,3.15,17.29,17.29,0,0,0-12.22-4.92,16.74,16.74,0,0,0-15.11,8.91A17.91,17.91,0,0,0,187,32.4c-9.16,0-16.59,6.78-16.59,15.15,0,.26,0,.51,0,.77a18.18,18.18,0,0,0-5.21-.77c-9.17,0-16.6,6.78-16.6,15.15a13.83,13.83,0,0,0,.57,3.87c-.44,0-.88-.06-1.32-.06-9.17,0-16.59,6.78-16.59,15.15a13.45,13.45,0,0,0,.29,2.78c-7.8,1.24-13.73,7.44-13.73,14.91a14.05,14.05,0,0,0,.56,3.85c-6.44,2.08-11.07,7.68-11.07,14.27a14.56,14.56,0,0,0,5.37,11.14,14.85,14.85,0,0,0-1.46,3.19,14.76,14.76,0,0,0-6.68,12.13c0,6,3.83,11.16,9.36,13.62,0,.25,0,.5,0,.75,0,.08,0,.16,0,.24a14.37,14.37,0,0,0-4.06,9.92c0,6.92,5.09,12.74,12,14.55a14.07,14.07,0,0,0-.7,4.36c0,8.37,7.42,15.15,16.59,15.15s16.59-6.78,16.59-15.15a14.49,14.49,0,0,0-.19-2.19,14.92,14.92,0,0,0,8-13,14.29,14.29,0,0,0-4-9.84,14.55,14.55,0,0,0,5.47-11.22v-.08c.52,0,1,.08,1.57.08,7.77,0,14.27-4.89,16.07-11.48a17.23,17.23,0,0,0,12.49,5.2A17.42,17.42,0,0,0,204.83,141,17.1,17.1,0,0,0,218,146.91a17.59,17.59,0,0,0,9.42-2.68,17.78,17.78,0,0,0,21.06,1.5,17.56,17.56,0,0,0,9.54,2.76,17.17,17.17,0,0,0,13-5.75,17.71,17.71,0,0,0,23-.13,17.16,17.16,0,0,0,13.11,5.88,17.77,17.77,0,0,0,7.37-1.59,16.65,16.65,0,0,0,15.36,9.43h0c0,.25,0,.5,0,.75a15,15,0,0,0,8.31,13.12,14.05,14.05,0,0,0-.39,3.26,15,15,0,0,0,8.58,13.27c0,.22,0,.43,0,.65,0,8.37,7.43,15.15,16.59,15.15s16.59-6.78,16.59-15.15a13.71,13.71,0,0,0-.61-4c6.31-2.14,10.82-7.68,10.82-14.19a14.36,14.36,0,0,0-4-9.89A14.78,14.78,0,0,0,392.66,146.91Z"/></svg>